<?xml version="1.0" standalone="no"?>
<!DOCTYPE svg PUBLIC "-//W3C//DTD SVG 20010904//EN"
 "http://www.w3.org/TR/2001/REC-SVG-20010904/DTD/svg10.dtd">
<svg version="1.0" xmlns="http://www.w3.org/2000/svg"
 width="750.000000pt" height="1000.000000pt" viewBox="0 0 750.000000 1000.000000"
 preserveAspectRatio="xMidYMid meet">

<g transform="translate(0.000000,1000.000000) scale(0.100000,-0.100000)"
fill="#000000" stroke="none">
<path d="M2005 9941 c-88 -22 -137 -87 -148 -196 -7 -65 11 -145 32 -146 9 -1
5 -5 -9 -9 -14 -4 -19 -8 -12 -9 20 -2 13 -21 -8 -21 -11 0 -20 -7 -20 -15 0
-8 -4 -15 -10 -15 -5 0 -10 6 -10 13 0 8 -3 7 -9 -3 -6 -8 -7 -18 -4 -23 3 -4
-3 -14 -13 -22 -18 -13 -18 -14 -1 -21 10 -3 38 -4 63 0 26 3 44 2 44 -4 0 -6
7 -10 15 -10 20 0 19 -7 -5 -32 l-20 -22 0 27 c0 15 -4 27 -10 27 -5 0 -10 -5
-10 -11 0 -7 -10 -9 -26 -5 -24 6 -25 5 -11 -9 9 -8 20 -15 26 -15 6 0 11 -4
11 -10 0 -5 -7 -10 -15 -10 -8 0 -15 -7 -15 -15 0 -8 7 -15 15 -15 21 0 19
-38 -2 -43 -12 -3 -8 -5 9 -6 39 -2 43 -17 8 -31 -17 -7 -30 -18 -30 -25 0 -8
-3 -20 -6 -28 -3 -8 2 -21 10 -30 24 -23 19 -35 -11 -31 -16 2 -20 1 -10 -2
17 -5 24 -24 9 -24 -5 0 -9 -6 -10 -12 -3 -33 -12 -84 -17 -95 -2 -7 2 -13 10
-13 8 0 15 -7 15 -15 0 -8 5 -15 10 -15 6 0 5 -8 -2 -20 -18 -28 -31 -25 -24
6 5 19 3 25 -6 22 -30 -10 -11 -68 21 -68 22 0 10 -18 -19 -30 -48 -20 -56
-37 -29 -59 l24 -20 -22 -16 -23 -16 21 -22 c17 -19 18 -22 5 -25 -23 -5 -82
-63 -90 -90 -4 -12 -11 -20 -16 -17 -5 3 -11 1 -15 -5 -3 -5 -19 -7 -36 -3
-23 4 -36 0 -55 -18 -16 -15 -28 -19 -35 -12 -7 7 -5 14 6 23 8 7 15 27 15 46
0 18 5 36 10 39 16 10 11 33 -9 40 -13 4 -17 12 -13 30 3 20 0 25 -17 25 -19
0 -20 3 -11 20 6 11 15 18 21 15 5 -4 9 1 9 9 0 9 -11 18 -24 22 -19 5 -26 15
-31 47 -4 23 -12 48 -17 54 -7 9 -5 15 6 19 16 6 16 8 0 25 -16 18 -16 19 2
19 16 0 14 4 -11 25 -36 29 -45 31 -45 8 0 -10 -7 -27 -15 -37 -17 -22 -20
-111 -5 -121 5 -3 7 -12 4 -19 -3 -8 4 -16 18 -21 20 -6 20 -8 5 -12 -10 -3
-29 3 -44 12 -44 29 -45 25 -73 -225 -6 -52 -15 -108 -20 -125 -5 -16 -14 -68
-19 -115 l-9 -85 -99 -93 c-170 -160 -223 -216 -263 -277 -18 -27 -46 -63 -61
-80 -46 -50 -72 -119 -64 -173 9 -59 24 -88 70 -134 20 -20 44 -51 53 -70 13
-26 37 -42 108 -78 50 -25 101 -53 114 -62 20 -15 46 -18 140 -18 103 0 213
-11 263 -26 20 -6 136 -149 138 -170 1 -8 3 -18 4 -24 1 -5 3 -14 4 -20 0 -5
12 -10 26 -10 18 0 28 -7 35 -24 8 -23 11 -24 51 -13 27 6 44 7 46 1 2 -5 21
-9 43 -7 23 1 38 -2 35 -7 -7 -11 23 -2 42 12 6 5 31 7 56 5 39 -4 46 -2 50
15 3 11 10 17 16 14 5 -4 15 3 21 14 6 12 16 18 23 14 7 -4 9 -4 5 1 -7 8 9
28 27 35 6 2 18 14 28 27 10 13 23 20 29 17 5 -3 19 3 31 13 12 11 29 23 37
27 44 20 61 34 48 39 -7 3 -3 6 10 6 12 1 25 7 28 14 2 7 27 21 54 32 28 11
50 23 50 27 0 4 7 8 16 8 19 0 119 105 136 142 7 15 17 24 23 20 5 -3 4 2 -3
10 -8 9 -19 15 -25 12 -7 -2 -20 8 -29 23 -10 16 -18 22 -18 15 0 -7 -4 -10
-10 -7 -19 11 -10 25 15 25 14 0 28 7 31 15 4 8 12 15 20 15 23 0 16 26 -11
44 -16 11 -23 22 -18 29 11 18 4 50 -14 64 -9 7 -13 18 -10 26 8 21 -12 37
-46 37 -16 0 -26 4 -22 10 3 6 15 10 26 10 30 0 22 17 -13 29 -67 20 -106 24
-238 23 -74 -1 -155 3 -180 8 -25 5 -58 12 -74 15 -38 8 -16 25 26 20 15 -2
28 0 28 5 0 6 3 9 8 9 4 -1 22 4 39 10 28 11 31 15 19 27 -19 18 -31 18 -50
-2 -11 -11 -35 -16 -76 -15 -36 0 -58 -4 -55 -10 4 -5 -11 -9 -33 -9 -37 0
-40 -2 -39 -27 1 -16 6 -31 10 -34 17 -12 -8 -16 -51 -7 -36 8 -42 12 -37 29
5 15 2 19 -19 19 -14 0 -27 4 -31 10 -9 15 35 52 56 47 10 -3 21 -2 24 3 3 4
-15 7 -39 6 -33 -1 -47 3 -55 16 -10 16 -8 18 15 18 17 0 28 6 31 20 5 20 43
29 43 10 0 -5 11 -10 25 -10 14 0 25 -4 25 -10 0 -5 5 -10 10 -10 6 0 10 7 10
16 0 10 4 12 13 7 27 -17 54 -12 77 12 19 21 22 28 11 34 -11 7 -9 10 7 15 11
4 23 13 25 21 4 8 14 11 28 8 14 -4 20 -2 16 5 -4 5 -1 13 5 15 9 4 7 6 -3 6
-9 1 -22 8 -29 16 -10 12 -7 15 14 21 30 7 33 19 10 32 -14 8 -11 11 15 23 21
9 35 25 42 47 6 18 17 36 25 39 10 4 11 9 4 18 -7 9 0 15 30 25 22 7 40 15 40
17 0 1 -10 13 -22 25 -14 14 -18 23 -10 26 7 2 10 8 6 13 -7 12 13 11 39 -2
12 -7 19 -8 15 -4 -8 8 15 35 30 35 6 0 12 -4 14 -10 2 -5 12 -11 23 -14 68
-14 89 -36 35 -36 -21 0 -28 -4 -24 -14 8 -22 45 -32 114 -31 36 0 68 -4 73
-10 5 -6 11 -4 17 7 8 12 20 15 55 11 50 -5 64 13 18 23 -16 3 -39 10 -52 15
-18 7 -26 7 -32 -3 -6 -9 -9 -9 -9 -1 0 6 -2 18 -6 26 -4 11 11 16 71 21 82 7
94 11 170 56 105 61 150 72 214 51 40 -13 45 -13 56 2 14 20 31 22 38 5 4 -10
6 -10 6 0 1 8 12 3 28 -13 15 -14 35 -25 44 -25 8 0 25 -9 37 -20 12 -11 28
-20 37 -20 8 0 15 -4 15 -9 0 -8 36 -20 95 -31 6 -1 1 -5 -10 -9 -18 -7 -17
-10 15 -30 19 -12 43 -20 53 -17 17 4 21 -4 18 -35 -2 -21 21 -39 56 -43 15
-2 31 -4 36 -5 4 0 7 -8 7 -17 0 -8 5 -12 10 -9 6 3 10 1 10 -5 0 -7 6 -10 14
-7 8 3 20 -1 26 -9 10 -12 8 -14 -16 -15 -16 0 -23 -3 -16 -6 6 -2 12 -11 12
-20 0 -10 6 -12 20 -8 12 4 20 2 20 -5 0 -6 5 -8 11 -5 6 4 5 -3 -3 -15 -10
-18 -10 -24 0 -27 6 -3 12 -16 12 -29 0 -22 4 -24 46 -24 29 0 43 -4 39 -11
-4 -6 1 -17 11 -25 18 -14 17 -15 -13 -10 -18 3 -35 1 -38 -4 -3 -5 17 -12 45
-16 40 -5 47 -9 35 -18 -10 -7 -12 -16 -6 -25 8 -12 15 -12 45 3 27 13 41 14
56 6 30 -16 24 -32 -12 -28 -19 2 -32 -2 -34 -10 -1 -7 0 -8 3 -2 7 15 23 12
23 -5 0 -9 9 -15 24 -15 13 0 27 -7 30 -15 5 -13 0 -15 -29 -9 -45 8 -44 1 3
-32 35 -25 36 -26 10 -21 -16 2 -28 0 -28 -4 0 -5 7 -9 15 -9 8 0 15 -5 15
-11 0 -6 -18 -9 -47 -7 -27 2 -50 -1 -53 -7 -3 -6 13 -11 35 -13 22 -2 44 -8
50 -13 12 -12 51 -12 73 0 12 6 24 3 41 -10 l23 -19 -29 0 c-16 0 -38 -7 -49
-15 -10 -8 -29 -15 -41 -15 -28 0 -30 -16 -3 -25 11 -3 20 -11 20 -16 0 -5 6
-8 12 -7 7 2 13 -4 13 -12 0 -8 -6 -14 -13 -12 -50 10 -92 9 -92 -3 0 -11 15
-18 65 -31 40 -10 86 -37 78 -45 -6 -6 -26 -2 -54 10 -24 12 -57 21 -72 21
-20 0 -30 6 -34 20 -4 15 -14 20 -40 20 -31 0 -33 -1 -22 -21 10 -20 9 -21
-15 -15 -20 5 -24 3 -20 -9 7 -18 35 -20 52 -3 9 9 16 8 30 -5 10 -9 32 -17
48 -17 16 -1 42 -11 57 -24 25 -20 26 -24 13 -36 -30 -24 -95 -9 -96 24 -1 14
-50 51 -50 36 0 -5 4 -10 9 -10 5 0 11 -9 14 -20 3 -11 0 -20 -6 -20 -6 0 -7
-3 -4 -7 4 -3 0 -17 -8 -30 -14 -21 -14 -23 5 -23 11 0 19 3 18 8 -3 8 5 12
27 12 21 0 19 -28 -2 -33 -12 -3 -10 -5 7 -6 28 -1 65 -36 50 -46 -6 -4 -10
-2 -10 2 0 5 -23 17 -52 27 -56 20 -194 24 -212 6 -7 -7 -3 -10 11 -10 12 0
25 -4 28 -10 10 -17 48 -12 41 5 -7 18 24 20 57 3 12 -6 28 -14 36 -18 19 -8
27 -31 9 -26 -7 2 -27 7 -45 10 -27 4 -31 2 -30 -14 1 -10 4 -17 7 -15 12 7
91 -35 85 -45 -4 -6 -10 -8 -15 -5 -18 11 -100 22 -100 14 0 -5 5 -9 10 -9 6
0 10 -6 10 -13 0 -8 -19 -13 -61 -14 -68 -1 -82 -9 -56 -28 16 -12 16 -14 2
-29 -21 -20 -41 -21 -49 -1 -8 21 -56 20 -56 -1 0 -11 6 -15 19 -11 13 3 17 0
14 -12 -5 -21 35 -23 55 -4 15 14 46 18 38 5 -5 -8 58 -15 127 -15 15 0 27 -4
27 -9 0 -4 -33 -5 -72 -2 -51 5 -70 3 -63 -4 6 -6 26 -12 45 -14 l35 -4 -40
-8 c-22 -5 -51 -17 -64 -27 -13 -11 -32 -19 -42 -19 -11 0 -19 -4 -19 -10 0
-5 6 -7 13 -5 6 3 19 0 27 -5 12 -7 12 -14 4 -27 -13 -22 -7 -43 13 -43 8 0
13 -6 10 -12 -2 -7 -16 -13 -32 -13 -19 -1 -31 -8 -38 -23 -5 -11 -17 -21 -26
-20 -35 3 -62 -2 -57 -11 3 -5 -1 -14 -8 -20 -11 -10 -16 -8 -21 9 -10 31 -40
21 -40 -13 1 -23 -3 -27 -26 -27 -20 0 -30 -7 -39 -30 -7 -16 -18 -30 -25 -30
-7 0 -12 -8 -11 -17 1 -13 -7 -19 -26 -21 -16 -2 -28 -7 -28 -12 0 -5 -15 -6
-34 -3 -29 4 -34 2 -33 -13 1 -11 8 -24 15 -29 7 -6 14 -29 15 -52 0 -23 6
-41 11 -40 5 1 12 -7 14 -18 2 -11 9 -23 16 -27 8 -5 7 -11 -2 -20 -14 -14
-16 -68 -2 -68 5 0 7 -7 4 -15 -4 -10 0 -15 15 -15 18 0 20 -4 14 -31 -6 -31
-6 -31 27 -24 19 4 30 3 27 -2 -3 -5 7 -7 24 -5 28 4 29 3 29 -36 0 -23 4 -44
10 -47 6 -4 7 6 3 26 -4 23 -3 30 5 25 7 -4 12 -13 12 -20 0 -7 7 -21 16 -32
14 -17 15 -17 10 -1 -4 12 -2 17 6 15 7 -3 16 -22 19 -44 3 -21 7 -31 8 -21 0
9 6 17 12 17 6 0 9 -7 5 -15 -4 -12 4 -15 39 -15 38 0 45 -3 45 -20 0 -17 4
-19 27 -14 15 4 36 16 47 26 11 10 28 16 38 12 10 -3 23 -2 30 3 19 11 81 12
96 0 10 -8 16 -7 23 4 6 10 2 15 -16 17 -14 2 -25 7 -25 12 0 14 27 19 39 7 8
-8 15 -5 27 11 16 24 37 21 27 -3 -8 -23 63 -19 94 5 37 29 86 35 117 14 20
-12 26 -13 24 -4 -4 17 25 24 59 15 19 -4 24 -11 20 -25 -4 -16 -2 -18 13 -10
10 6 48 10 84 10 l66 0 -6 30 c-4 17 -3 31 2 31 5 1 28 3 52 3 25 2 47 8 53
17 6 10 9 10 9 2 0 -7 8 -13 17 -13 9 0 25 -7 34 -16 17 -15 23 -15 84 2 59
17 96 44 60 44 -8 0 -15 -5 -15 -10 0 -6 -6 -10 -12 -8 -7 1 -22 -1 -34 -5
-12 -4 -32 -3 -45 2 -24 10 -23 10 6 12 17 1 33 1 37 0 4 0 5 5 2 13 -3 8 -14
12 -25 9 -10 -3 -19 -1 -19 3 0 19 37 31 79 28 24 -2 50 1 57 7 11 9 14 8 14
-2 0 -10 3 -10 12 -1 10 10 10 15 -2 23 -11 8 -9 9 12 5 14 -3 28 -3 31 2 2 4
2 0 -1 -8 -14 -45 -8 -55 30 -52 31 3 37 1 32 -12 -4 -10 -18 -16 -36 -16 -16
0 -36 -6 -44 -14 -18 -19 -18 -32 0 -17 7 6 21 9 29 5 9 -3 31 1 48 10 36 18
99 22 99 6 0 -5 18 -10 40 -10 29 0 40 -4 40 -15 0 -11 -5 -12 -24 -5 -13 5
-26 6 -29 4 -3 -3 -16 2 -30 10 -23 16 -57 13 -57 -5 0 -4 6 -6 13 -3 8 3 29
-10 48 -27 19 -18 26 -30 17 -26 -12 4 -15 2 -12 -7 7 -17 -21 -28 -51 -20
-17 4 -32 -2 -55 -24 -30 -29 -31 -31 -11 -41 21 -12 38 0 26 18 -3 6 9 5 27
-1 18 -5 45 -12 61 -15 51 -10 39 -23 -21 -23 -61 0 -110 -24 -94 -45 12 -16
50 -35 72 -35 11 0 29 -5 39 -12 18 -11 18 -13 3 -25 -11 -8 -12 -12 -4 -13
24 0 12 -20 -13 -20 -16 0 -25 6 -25 16 0 8 -5 12 -11 8 -6 -3 -15 -1 -19 5
-4 8 -17 10 -33 5 l-27 -6 40 -29 c23 -17 46 -27 52 -23 7 5 9 0 6 -14 -4 -15
-2 -22 8 -22 8 0 14 -4 14 -10 0 -5 -9 -10 -20 -10 -11 0 -20 4 -20 8 0 17
-69 41 -105 37 -19 -3 -35 -1 -35 3 0 14 -69 32 -76 20 -9 -14 17 -29 40 -22
11 4 16 2 12 -4 -3 -6 3 -13 14 -17 11 -3 20 -11 20 -16 0 -5 -11 -2 -25 7
-29 19 -45 12 -38 -16 3 -11 9 -17 14 -14 5 3 9 -2 9 -10 0 -9 8 -16 18 -17
11 0 7 -4 -10 -11 -16 -5 -28 -13 -28 -18 0 -4 -13 -13 -30 -19 -34 -11 -40
-31 -10 -31 17 0 18 -4 10 -25 -6 -15 -6 -26 0 -30 19 -11 10 -22 -14 -18 -17
4 -29 -3 -45 -23 -12 -15 -24 -24 -28 -21 -3 4 -1 12 5 20 7 8 7 18 2 27 -8
13 -10 12 -10 -2 0 -10 -5 -18 -10 -18 -7 0 -7 6 0 19 5 11 10 30 10 43 l0 23
13 -24 c14 -27 29 -28 39 -1 5 14 2 18 -10 18 -9 0 -25 3 -34 7 -13 5 -18 3
-18 -8 0 -21 -26 -41 -35 -27 -4 6 -20 8 -41 4 -22 -4 -34 -2 -34 5 0 20 -27
12 -44 -14 -20 -30 -20 -35 -1 -35 8 0 15 3 15 8 0 4 26 7 58 7 53 0 57 -2 60
-25 2 -14 8 -29 13 -35 12 -12 12 -35 -1 -35 -5 0 -10 8 -10 18 0 9 -4 24 -9
32 -7 9 -9 2 -7 -24 2 -21 10 -42 17 -47 9 -5 10 -9 2 -9 -26 0 12 -47 47 -58
35 -10 109 -6 120 7 14 16 69 40 74 32 4 -6 18 -6 38 -1 45 14 151 14 174 2
11 -6 32 -12 47 -14 14 -2 29 -7 33 -11 4 -4 15 -7 25 -7 22 0 35 -18 22 -31
-6 -6 -24 -3 -48 6 -28 12 -40 13 -49 5 -8 -8 -7 -14 5 -23 8 -7 18 -20 22
-30 4 -10 12 -17 19 -16 38 5 41 -2 13 -25 -19 -16 -38 -23 -51 -20 -13 3 -25
0 -30 -8 -4 -7 -4 -10 1 -6 5 5 14 -1 22 -12 8 -11 25 -20 39 -20 27 0 32 -15
9 -24 -21 -8 -19 -28 5 -59 20 -25 20 -25 0 -20 -12 3 -22 -1 -26 -11 -4 -11
-18 -16 -43 -16 l-36 0 33 -26 c17 -14 32 -32 32 -40 0 -8 7 -17 15 -20 22 -9
6 -26 -17 -18 -14 4 -18 2 -14 -5 4 -7 1 -9 -7 -5 -26 10 -27 -13 -2 -26 27
-15 35 -36 9 -26 -9 3 -34 8 -57 11 -33 4 -36 3 -17 -4 14 -5 21 -10 15 -10
-5 -1 -2 -6 8 -12 9 -5 17 -15 17 -22 0 -17 -37 -39 -45 -27 -9 15 -35 12 -35
-4 0 -8 -9 -18 -20 -21 -23 -7 -24 -15 -8 -50 14 -31 3 -46 -16 -20 -10 14
-20 16 -42 11 l-29 -8 24 -19 c13 -11 22 -21 20 -23 -13 -11 -78 -13 -89 -3
-9 9 -10 6 -6 -13 3 -14 8 -42 10 -62 3 -37 3 -38 -31 -38 -21 0 -32 -4 -28
-11 4 -6 19 -7 36 -4 25 6 29 4 29 -14 0 -12 5 -21 10 -21 6 0 10 -5 10 -10 0
-6 -14 -3 -31 6 -22 11 -34 13 -42 5 -7 -7 -5 -12 9 -17 18 -7 34 -23 34 -34
0 -3 -13 -11 -29 -18 -26 -11 -33 -10 -66 13 -40 27 -55 31 -55 15 0 -5 7 -10
16 -10 11 0 13 -6 9 -19 -3 -11 -1 -22 4 -25 5 -4 7 -22 4 -41 -5 -34 8 -48
22 -25 10 16 25 1 25 -25 0 -36 -31 -36 -63 -1 -19 21 -30 27 -33 19 -3 -7
-12 -13 -20 -13 -18 0 -18 -15 1 -34 22 -22 -1 -59 -30 -50 -11 4 -22 11 -23
15 -2 5 -8 7 -13 3 -5 -3 -9 1 -9 9 0 8 -7 17 -15 21 -10 4 -15 -1 -15 -14 0
-11 5 -20 10 -20 6 0 10 -5 10 -11 0 -5 -4 -8 -9 -4 -5 3 -13 0 -16 -6 -5 -7
-14 -3 -26 10 -11 12 -24 21 -28 21 -11 0 -20 -47 -15 -82 3 -27 -4 -32 -32
-29 -6 1 -17 -6 -24 -14 -14 -17 -40 -20 -40 -4 0 5 -4 7 -10 4 -15 -9 -12
-55 4 -55 7 0 16 -11 18 -25 6 -30 -5 -32 -24 -4 -10 15 -24 21 -51 21 -45 0
-54 -6 -38 -26 16 -19 5 -57 -15 -49 -7 3 -14 0 -14 -7 0 -7 -6 -18 -14 -24
-18 -15 -27 -68 -14 -86 8 -12 9 -12 4 3 -3 11 -2 16 4 12 6 -3 10 -15 10 -26
0 -16 -5 -19 -20 -14 -13 4 -20 2 -20 -7 0 -7 -10 -18 -23 -23 -13 -6 -21 -17
-19 -28 2 -11 -4 -17 -18 -17 -26 0 -29 -50 -2 -51 13 0 11 -3 -6 -10 -18 -7
-22 -14 -17 -29 5 -15 2 -20 -12 -20 -15 0 -16 -2 -3 -10 13 -8 12 -11 -4 -23
-14 -10 -17 -20 -11 -33 6 -15 8 -16 13 -4 3 8 16 28 28 43 22 26 24 27 24 8
0 -12 6 -21 15 -21 19 0 38 -36 30 -60 -11 -34 4 -58 38 -65 44 -10 50 -15 37
-30 -7 -8 -9 -24 -5 -35 5 -16 2 -23 -14 -27 -24 -6 -28 -23 -6 -23 10 0 15
-10 15 -28 0 -15 5 -33 11 -39 7 -7 8 -17 3 -25 -12 -19 -11 -39 3 -70 16 -34
16 -33 -3 -52 -14 -14 -14 -16 0 -16 8 0 13 -6 11 -12 -3 -7 7 -19 22 -26 19
-9 29 -9 31 -2 3 7 11 5 23 -6 24 -22 8 -58 -22 -49 -15 5 -19 2 -19 -14 0
-13 6 -21 16 -21 9 0 18 -9 21 -20 3 -11 12 -20 20 -20 10 0 13 -6 9 -16 -3
-9 -6 -18 -6 -21 0 -3 -7 0 -15 7 -9 7 -19 9 -23 5 -4 -4 -1 -10 6 -12 6 -3
12 -13 12 -23 0 -10 4 -21 9 -24 5 -3 7 -16 3 -28 -3 -14 -2 -19 6 -14 22 14
24 -23 3 -53 -29 -40 -26 -51 12 -50 30 1 30 1 7 8 l-25 7 23 8 c18 6 29 3 43
-13 11 -12 15 -21 10 -21 -5 0 -22 -5 -38 -12 -15 -6 -31 -11 -35 -10 -4 1
-16 -12 -28 -28 -23 -32 -50 -40 -50 -15 0 9 -6 12 -15 9 -24 -10 -17 -22 15
-29 20 -4 30 -13 30 -25 0 -10 5 -22 11 -25 6 -5 4 -11 -7 -19 -12 -9 -14 -15
-6 -20 7 -4 12 -2 12 4 0 13 31 9 48 -7 16 -15 15 -23 -3 -23 -8 0 -15 6 -15
13 0 6 -5 4 -11 -5 -5 -10 -16 -18 -23 -18 -17 0 -27 -61 -13 -78 6 -8 21 -11
36 -7 16 3 21 2 13 -3 -14 -10 -6 -96 9 -87 4 3 10 1 14 -5 4 -6 11 -8 16 -5
5 4 9 1 9 -4 0 -6 -5 -11 -11 -11 -6 0 -9 -7 -6 -15 4 -8 2 -17 -3 -20 -5 -3
-11 3 -14 12 -3 10 -4 5 -2 -10 3 -23 -2 -30 -23 -39 -16 -6 -21 -12 -13 -15
10 -4 10 -8 2 -18 -8 -10 -8 -19 0 -34 11 -22 -1 -61 -20 -61 -6 0 -9 -3 -9
-7 4 -27 -5 -43 -36 -57 -20 -10 -35 -24 -35 -34 0 -10 -6 -24 -12 -31 -18
-17 28 -53 60 -46 14 4 30 -2 45 -15 25 -24 31 -57 11 -57 -8 0 -14 10 -15 21
0 21 -1 21 -9 1 -5 -11 -9 -15 -9 -8 -1 6 -10 9 -20 6 -12 -3 -17 -11 -14 -19
4 -10 0 -12 -11 -8 -9 3 -16 1 -16 -5 0 -6 -6 -11 -14 -11 -8 0 -17 -15 -20
-34 -4 -19 -14 -37 -24 -41 -16 -6 -16 -7 1 -19 11 -9 15 -20 11 -32 -5 -15
-4 -16 5 -4 13 19 24 7 27 -30 1 -15 5 -33 8 -39 4 -6 1 -21 -6 -33 -7 -13
-11 -27 -10 -31 1 -4 -6 -7 -15 -5 -12 2 -17 -2 -14 -12 3 -8 4 -27 3 -42 -1
-20 9 -35 36 -58 33 -27 34 -30 14 -30 -12 0 -22 -4 -22 -10 0 -5 9 -10 19
-10 11 0 23 -5 26 -10 4 -6 12 -7 18 -3 7 3 5 -2 -4 -13 -9 -10 -14 -25 -12
-31 6 -16 -33 -17 -43 -2 -3 6 -17 9 -29 7 -16 -4 -22 -1 -18 8 3 8 -8 19 -29
27 -39 16 -47 7 -47 -58 0 -31 2 -36 9 -20 6 14 9 16 10 5 2 -8 2 -18 1 -22 0
-4 7 -4 15 -1 12 4 15 2 12 -8 -3 -8 -11 -13 -17 -11 -6 1 -11 -4 -11 -11 0
-7 9 -13 21 -14 23 -2 43 37 25 50 -6 5 -3 6 9 3 77 -20 81 -20 67 -4 -9 11
-10 18 -2 23 13 8 32 -3 25 -15 -3 -5 2 -16 11 -24 8 -9 11 -16 5 -16 -5 0
-11 -10 -13 -22 -2 -17 -9 -22 -23 -20 -14 2 -16 0 -8 -6 20 -13 -5 -57 -39
-70 -23 -8 -28 -16 -28 -44 0 -25 -3 -29 -10 -18 -8 13 -10 13 -10 -1 0 -15
24 -33 34 -26 1 1 11 -5 21 -13 14 -11 19 -12 22 -2 7 18 21 15 37 -10 25 -40
29 -68 11 -68 -9 0 -14 4 -11 8 2 4 -14 8 -37 9 -23 0 -37 -1 -30 -4 18 -7 4
-33 -18 -33 -11 0 -22 -8 -25 -17 -3 -10 -10 -29 -17 -43 -13 -27 -11 -70 4
-70 5 0 9 5 9 10 0 26 20 6 26 -25 3 -19 10 -37 14 -40 10 -6 0 -55 -11 -55
-5 0 -9 -7 -9 -15 0 -8 -9 -15 -19 -15 -11 0 -23 -9 -26 -20 -3 -11 -11 -20
-16 -20 -5 0 -9 -7 -9 -16 0 -9 -6 -14 -13 -11 -24 9 -13 -35 16 -64 31 -32
57 -38 57 -13 0 9 6 14 13 11 6 -2 12 -12 12 -23 1 -27 15 -66 31 -81 7 -8 11
-20 8 -28 -5 -11 1 -15 20 -15 14 0 27 1 29 3 2 1 11 -6 20 -15 34 -34 40 -67
50 -288 0 -14 -3 -35 -7 -47 -6 -17 -3 -23 8 -23 10 0 16 -9 16 -25 0 -17 -5
-25 -18 -25 -10 0 -25 -9 -35 -20 -20 -24 -52 -27 -43 -4 3 8 0 22 -8 30 -8 7
-16 19 -18 25 -5 16 -48 -7 -48 -25 0 -8 -7 -17 -16 -20 -8 -3 -12 -10 -9 -16
3 -5 1 -10 -4 -10 -6 0 -11 6 -12 13 -1 21 -20 -36 -25 -76 -3 -21 -1 -43 3
-50 10 -17 11 -47 1 -47 -5 0 -6 -4 -3 -10 3 -5 -2 -10 -12 -10 -17 -1 -17 -1
1 -12 14 -7 37 -7 87 1 37 6 85 11 106 11 32 0 44 7 91 57 43 46 61 57 90 60
47 3 90 25 124 61 23 25 29 44 39 123 6 52 15 101 20 111 5 9 16 54 24 100 9
45 20 99 25 118 5 19 12 66 16 105 5 43 18 94 37 135 42 92 49 170 32 337 -21
193 -19 298 6 405 18 75 29 100 71 155 27 36 71 97 97 137 27 39 57 78 67 87
26 21 122 73 160 86 17 6 78 37 135 70 57 32 149 81 204 108 55 27 121 64 147
82 25 19 82 50 125 70 101 46 180 96 334 210 169 125 200 150 345 273 81 69
163 138 183 154 20 17 57 55 83 85 166 194 204 245 254 339 31 57 79 133 107
170 47 61 116 171 167 265 12 22 26 79 35 140 8 56 18 116 23 132 13 41 37
161 58 279 18 104 17 110 -16 401 -6 44 -14 136 -20 205 -7 83 -19 150 -36
200 -28 83 -29 86 -74 185 -115 250 -180 406 -180 431 0 7 -20 54 -44 105 -43
94 -83 194 -76 194 2 0 -2 10 -8 21 -6 12 -26 75 -43 140 -35 134 -79 252
-115 306 -13 21 -24 42 -24 47 0 27 -214 351 -275 417 -5 6 -21 26 -35 45 -14
19 -52 63 -85 99 -34 36 -75 81 -92 101 -77 92 -287 271 -385 329 -32 19 -85
57 -117 85 -33 27 -79 65 -103 82 -53 40 -109 95 -239 236 -106 116 -161 207
-194 323 -10 32 -25 70 -35 84 -9 14 -32 58 -50 98 -19 41 -43 78 -53 84 -23
12 -56 83 -57 120 0 19 -21 50 -72 107 -69 76 -89 100 -191 230 -30 39 -68 70
-137 111 -73 44 -108 73 -150 124 -58 71 -150 140 -210 156 -41 12 -288 40
-375 43 -68 3 -265 36 -280 47 -5 4 -46 8 -90 8 -133 1 -327 12 -385 23 -67
13 -381 40 -448 40 -12 -1 -40 -9 -62 -20 -25 -12 -40 -15 -43 -8 -2 6 -34 13
-72 15 -62 4 -73 8 -105 38 -46 45 -122 80 -190 88 -30 4 -62 9 -70 11 -8 1
-28 -1 -45 -4z m5 -252 c0 -5 -14 -9 -31 -9 -26 0 -29 3 -20 14 12 14 51 10
51 -5z m-17 -106 c-7 -2 -19 -2 -25 0 -7 3 -2 5 12 5 14 0 19 -2 13 -5z m617
-512 c0 -16 -30 -33 -47 -26 -16 6 -15 8 7 20 29 17 40 18 40 6z m1660 -26 c0
-31 -3 -35 -35 -41 -19 -3 -35 -10 -35 -15 0 -5 -6 -9 -14 -9 -8 0 -16 -6 -18
-12 -3 -9 -9 -8 -22 5 -10 9 -13 17 -8 17 5 0 7 11 5 25 -4 20 0 25 23 31 16
4 37 7 48 6 10 0 25 6 33 14 21 20 23 18 23 -21z m-1725 -38 c-4 -8 -17 -18
-31 -21 -31 -8 -30 -20 2 -45 17 -13 41 -21 66 -21 25 0 41 -5 44 -15 4 -10
20 -15 46 -15 31 0 38 -3 36 -17 -3 -16 4 -18 49 -15 29 2 54 -1 58 -7 3 -6 1
-11 -4 -11 -6 0 -11 -4 -11 -10 0 -5 3 -9 8 -8 18 6 71 -22 77 -41 3 -12 11
-21 18 -21 8 0 7 -4 -1 -12 -9 -9 -52 -13 -135 -13 -67 0 -105 1 -83 3 35 3
37 4 20 17 -18 14 -18 14 1 15 14 0 16 3 7 8 -12 8 -117 -7 -137 -19 -5 -4
-19 -3 -30 2 -18 7 -18 8 -2 8 10 1 16 5 13 10 -4 5 0 12 6 15 14 6 -70 -2
-109 -10 -13 -2 -23 0 -23 5 0 5 -3 16 -6 24 -4 11 2 17 18 19 23 3 25 9 13
40 -4 11 0 18 12 21 10 3 1 5 -20 6 -22 1 -40 7 -43 15 -3 8 -18 16 -35 20
-27 5 -42 26 -19 26 6 0 10 5 10 11 0 5 -4 7 -10 4 -5 -3 -10 1 -10 10 0 9 5
13 10 10 6 -3 11 2 11 12 1 14 2 14 5 3 5 -19 74 -15 74 4 0 6 5 4 11 -4 7
-11 12 -12 15 -3 3 7 11 10 18 7 7 -3 23 -1 37 4 28 11 31 10 24 -11z m-270
-17 c14 -5 24 -14 21 -19 -7 -10 -56 9 -56 22 0 9 3 9 35 -3z m-3 -62 c5 1 19
0 29 -3 32 -11 10 -25 -37 -25 -49 0 -66 18 -42 44 11 13 15 13 26 -2 7 -9 18
-16 24 -14z m-94 0 c17 -17 15 -29 -5 -26 -29 5 -46 38 -20 38 7 0 18 -5 25
-12z m2102 -39 c0 -5 -7 -12 -15 -15 -9 -4 -15 -19 -15 -35 0 -31 -23 -41 -34
-13 -9 24 -7 41 7 56 16 16 57 21 57 7z m-2130 -25 c0 -8 8 -14 18 -14 10 0
23 -5 30 -12 9 -9 12 -9 12 3 0 8 -5 20 -12 27 -9 9 -7 12 13 12 14 0 32 -11
42 -25 18 -25 18 -25 -8 -35 -15 -6 -33 -10 -41 -10 -8 0 -14 -9 -14 -20 0
-11 -4 -20 -9 -20 -6 0 -11 -15 -13 -32 -3 -29 -8 -34 -38 -40 -40 -7 -121
-37 -104 -38 12 0 7 -50 -5 -50 -61 -5 -124 -4 -127 2 -3 4 5 12 16 18 13 7
20 7 20 0 0 -5 17 -9 38 -9 26 1 30 3 13 6 -13 3 -31 11 -38 19 -8 8 -21 14
-29 14 -25 0 -15 29 23 65 43 41 60 44 73 13 8 -18 9 -13 5 22 -3 25 -2 39 1
32 5 -10 9 -9 20 5 13 17 13 17 15 -2 0 -15 3 -12 9 9 5 16 7 33 4 38 -3 4 3
9 13 10 10 0 25 2 33 2 8 1 14 9 14 18 -1 10 4 14 12 11 8 -3 14 -11 14 -19z
m227 6 c1 -11 -2 -18 -8 -15 -11 7 -12 35 -1 35 4 0 8 -9 9 -20z m-37 -26 c0
-8 -6 -11 -15 -8 -8 4 -15 9 -15 13 0 4 7 8 15 8 8 0 15 -6 15 -13z m258 -111
c-16 -2 -40 -2 -55 0 -16 2 -3 4 27 4 30 0 43 -2 28 -4z m-735 -19 c-8 -22
-32 -24 -43 -4 -9 16 -6 19 19 18 19 -1 28 -5 24 -14z m567 -253 c0 -6 -4 -13
-10 -16 -5 -3 -10 1 -10 9 0 9 5 16 10 16 6 0 10 -4 10 -9z m1160 -101 c0 -5
-4 -10 -10 -10 -5 0 -10 5 -10 10 0 6 5 10 10 10 6 0 10 -4 10 -10z m60 -160
c0 -5 -4 -10 -10 -10 -5 0 -10 5 -10 10 0 6 5 10 10 10 6 0 10 -4 10 -10z
m-1680 -269 c0 -12 -21 -19 -38 -13 -11 4 -11 6 0 13 17 11 38 11 38 0z m1979
-7 c17 -8 29 -19 26 -23 -6 -11 -55 -1 -55 10 0 5 -9 9 -20 9 -11 0 -20 5 -20
10 0 15 33 12 69 -6z m-2339 -3 c0 -4 -11 -6 -25 -3 -14 2 -25 6 -25 8 0 2 11
4 25 4 14 0 25 -4 25 -9z m180 -11 c0 -5 -6 -10 -13 -10 -24 0 -37 -21 -22
-36 16 -16 39 -19 30 -4 -8 12 52 12 80 0 l20 -9 -20 -2 c-11 -1 -27 -3 -35
-4 -8 -1 -23 -3 -32 -4 -9 0 -23 -7 -30 -14 -10 -9 -26 -10 -66 -2 -29 6 -50
14 -46 18 4 4 -1 8 -12 9 -10 0 -23 2 -29 3 -5 2 -18 3 -28 4 -30 2 -8 21 24
21 16 0 29 4 29 8 0 5 23 8 52 8 33 -1 53 4 55 12 5 14 43 17 43 2z m486 -42
c3 -4 -2 -8 -11 -8 -9 0 -14 -4 -11 -9 3 -5 16 -7 29 -5 22 4 22 4 -1 -6 -13
-5 -27 -8 -31 -6 -3 2 -15 -2 -26 -10 -16 -12 -18 -18 -7 -34 7 -12 8 -20 2
-21 -5 -1 -16 -2 -22 -3 -17 -2 -37 17 -30 28 3 5 -7 7 -21 4 -23 -5 -25 -2
-24 26 4 51 12 56 83 54 36 -1 67 -5 70 -10z m-316 -28 c-9 -17 -7 -20 15 -21
34 -2 38 -3 54 -13 8 -5 29 -9 48 -8 18 1 33 -3 33 -9 0 -7 -31 -8 -92 -3 -62
4 -108 2 -138 -6 l-45 -12 35 -12 c22 -7 47 -9 65 -4 63 17 120 5 84 -18 -15
-9 8 -24 37 -24 11 0 28 -6 39 -13 16 -12 13 -14 -25 -11 -23 1 -54 6 -69 10
-14 4 -39 8 -56 9 -83 5 -81 5 -65 16 12 8 9 10 -11 6 -18 -2 -31 2 -40 15 -7
10 -24 18 -38 18 -13 0 -39 10 -58 21 -30 19 -38 20 -58 9 -34 -18 -75 -5 -74
23 0 12 3 17 5 11 3 -7 23 -9 52 -7 37 4 51 1 68 -15 26 -25 91 -22 151 7 23
12 47 21 53 21 5 0 10 7 10 15 0 8 7 15 15 15 13 0 14 -4 5 -20z m463 13 c-7
-2 -19 -2 -25 0 -7 3 -2 5 12 5 14 0 19 -2 13 -5z m1487 -73 c0 -5 -4 -10 -10
-10 -5 0 -10 5 -10 10 0 6 5 10 10 10 6 0 10 -4 10 -10z m104 -29 c4 -5 -3 -7
-14 -4 -23 6 -26 13 -6 13 8 0 17 -4 20 -9z m-2250 -35 c-7 -17 24 -28 69 -26
60 4 70 1 65 -18 -4 -14 2 -18 33 -18 21 -1 36 2 33 7 -3 5 -2 9 3 9 16 0 30
-15 30 -32 0 -13 -6 -16 -24 -12 -13 4 -23 2 -23 -5 0 -6 -12 -9 -27 -7 -46 6
-83 18 -83 26 0 5 -29 18 -65 30 -67 22 -92 40 -55 40 13 0 19 -4 14 -12 -5
-7 -3 -8 6 -3 10 6 9 11 -5 22 -11 7 -24 13 -29 14 -6 0 -2 4 9 8 25 10 56 -5
49 -23z m2251 -26 c3 -5 -1 -10 -10 -10 -9 0 -13 5 -10 10 3 6 8 10 10 10 2 0
7 -4 10 -10z m-2331 -29 c18 -12 40 -18 55 -15 14 2 40 1 56 -4 23 -7 29 -14
27 -30 -3 -19 2 -22 32 -22 39 0 51 -19 14 -21 -22 -1 -22 -1 2 -9 22 -7 23
-8 4 -9 -40 -2 -84 11 -84 25 0 8 -10 14 -25 14 -13 0 -28 6 -32 14 -4 8 -14
16 -22 18 -8 2 -23 11 -33 21 -10 9 -25 17 -33 17 -8 0 -15 5 -15 10 0 16 22
12 54 -9z m10 -62 c-3 -6 -2 -14 5 -18 9 -6 -46 -8 -87 -3 -27 4 -1 19 34 20
20 1 39 4 42 7 9 9 13 5 6 -6z m-83 -49 c12 0 19 -7 19 -19 0 -17 -3 -18 -32
-9 -18 6 -40 13 -48 15 -13 4 -13 5 0 13 8 6 21 8 28 5 8 -3 22 -5 33 -5z
m960 -10 c11 0 18 -4 15 -8 -7 -12 -66 -2 -66 10 0 6 7 7 16 4 9 -3 25 -6 35
-6z m-811 -9 c0 -9 -23 -21 -41 -21 -4 0 -6 7 -3 15 7 16 44 21 44 6z m2201
-21 c10 0 21 -5 25 -11 9 -16 -38 -1 -54 17 -7 9 -8 10 0 4 7 -6 20 -10 29
-10z m-171 -70 c0 -5 -2 -10 -4 -10 -3 0 -8 5 -11 10 -3 6 -1 10 4 10 6 0 11
-4 11 -10z m50 -40 c0 -5 -2 -10 -4 -10 -3 0 -8 5 -11 10 -3 6 -1 10 4 10 6 0
11 -4 11 -10z m-164 -92 c26 -2 54 -18 54 -31 0 -10 -101 0 -112 11 -16 16 -2
47 16 33 7 -6 26 -12 42 -13z m87 -59 c-4 -15 -8 -17 -14 -8 -8 14 -3 29 11
29 4 0 6 -9 3 -21z m-1773 -160 c0 -5 -4 -9 -10 -9 -5 0 -10 7 -10 16 0 8 5
12 10 9 6 -3 10 -10 10 -16z m1270 -306 c0 -2 -9 -12 -21 -24 -23 -23 -44 -20
-51 8 -4 16 1 18 34 18 21 0 38 -1 38 -2z m1670 -263 c0 -5 -12 -10 -26 -10
-14 0 -23 4 -19 10 3 6 15 10 26 10 10 0 19 -4 19 -10z m100 -10 c17 -11 9
-13 -32 -10 -16 1 -28 -3 -28 -9 0 -6 -4 -11 -10 -11 -19 0 -10 21 13 30 29
12 39 12 57 0z m-545 -30 c3 -5 -1 -10 -10 -10 -9 0 -13 5 -10 10 3 6 8 10 10
10 2 0 7 -4 10 -10z m-190 -49 c3 -5 1 -12 -5 -16 -5 -3 -10 1 -10 9 0 18 6
21 15 7z m-790 -31 c3 -5 1 -10 -4 -10 -6 0 -11 5 -11 10 0 6 2 10 4 10 3 0 8
-4 11 -10z m413 3 c-10 -2 -28 -2 -40 0 -13 2 -5 4 17 4 22 1 32 -1 23 -4z
m1076 -30 c3 -4 13 -8 21 -10 8 -2 23 -5 32 -6 9 -2 19 -9 21 -15 2 -7 7 -10
12 -7 4 3 10 -1 13 -8 5 -14 -36 -18 -49 -4 -4 4 -16 7 -26 7 -21 0 -48 22
-48 39 0 12 13 15 24 4z m-1497 -29 c-3 -3 -12 -4 -19 -1 -8 3 -5 6 6 6 11 1
17 -2 13 -5z m1403 2 c0 -3 -4 -8 -10 -11 -5 -3 -10 -1 -10 4 0 6 5 11 10 11
6 0 10 -2 10 -4z m54 -2 c17 -7 10 -34 -9 -34 -17 0 -28 17 -20 30 7 12 8 12
29 4z m61 -54 c3 -6 -4 -10 -17 -10 -18 0 -20 2 -8 10 19 12 18 12 25 0z
m-150 -30 c18 -7 18 -8 -7 -15 -31 -8 -58 -1 -58 15 0 12 36 12 65 0z m85 -34
c0 -3 -4 -8 -10 -11 -5 -3 -10 -1 -10 4 0 6 5 11 10 11 6 0 10 -2 10 -4z m50
-26 c0 -5 -4 -10 -9 -10 -6 0 -13 5 -16 10 -3 6 1 10 9 10 9 0 16 -4 16 -10z
m-92 -108 c2 -7 -5 -12 -17 -12 -14 0 -19 5 -14 15 6 17 25 15 31 -3z m-50
-130 c6 -19 -10 -14 -43 14 l-30 25 34 -13 c19 -8 36 -19 39 -26z m-92 6 c4
-6 0 -15 -9 -20 -9 -5 -14 -15 -11 -23 4 -11 -1 -15 -17 -15 -12 0 -19 3 -16
7 12 11 -14 33 -39 33 -30 0 -31 14 -3 26 25 12 87 6 95 -8z m-177 -167 c9 -6
10 -10 2 -16 -16 -9 -44 2 -36 15 8 12 16 12 34 1z m199 -14 c27 -2 27 -4 4
-16 -13 -7 -32 -6 -60 2 -58 17 -65 30 -12 23 25 -4 55 -8 68 -9z m62 3 c8 -5
11 -10 5 -10 -5 0 -17 5 -25 10 -8 5 -10 10 -5 10 6 0 17 -5 25 -10z m223 -17
c-7 -2 -21 -2 -30 0 -10 3 -4 5 12 5 17 0 24 -2 18 -5z m-363 -22 c0 -5 -16
-11 -35 -13 -24 -3 -35 0 -35 9 0 8 13 13 35 13 19 0 35 -4 35 -9z m-136 -10
c3 -5 16 -7 27 -4 16 4 20 2 17 -8 -7 -18 -77 -13 -98 7 -12 12 -10 14 17 14
18 0 34 -4 37 -9z m-234 -1311 c12 -8 11 -10 -7 -10 -13 0 -23 5 -23 10 0 13
11 13 30 0z m-210 -270 c0 -5 -7 -7 -15 -4 -8 4 -15 8 -15 10 0 2 7 4 15 4 8
0 15 -4 15 -10z m-25 -220 c3 -5 -1 -10 -9 -10 -9 0 -16 5 -16 10 0 6 4 10 9
10 6 0 13 -4 16 -10z m53 -57 c2 -8 -5 -13 -17 -13 -12 0 -21 6 -21 16 0 18
31 15 38 -3z m19 -208 c0 -8 -4 -15 -9 -15 -4 0 -8 7 -8 15 0 8 4 15 8 15 5 0
9 -7 9 -15z m16 -72 c-7 -2 -19 -2 -25 0 -7 3 -2 5 12 5 14 0 19 -2 13 -5z
m-3 -63 c12 -8 13 -11 1 -19 -9 -6 -10 -11 -2 -15 6 -4 9 -12 5 -17 -8 -13
-31 20 -31 44 0 19 6 21 27 7z m160 -254 c0 -9 -30 -14 -35 -6 -4 6 3 10 14
10 12 0 21 -2 21 -4z m-30 -221 c0 -8 -9 -15 -20 -15 -11 0 -20 7 -20 15 0 8
9 15 20 15 11 0 20 -7 20 -15z m-10 -44 c0 -10 -7 -24 -15 -31 -8 -7 -13 -16
-10 -20 3 -4 -6 -7 -20 -6 -19 1 -25 7 -25 24 0 17 6 22 25 22 16 0 25 6 25
15 0 8 5 15 10 15 6 0 10 -8 10 -19z m25 -281 c-3 -5 -12 -7 -20 -3 -21 7 -19
13 6 13 11 0 18 -4 14 -10z m-169 -725 c-5 -18 -2 -25 8 -25 8 0 18 -4 21 -10
3 -5 -3 -10 -14 -10 -28 0 -46 35 -29 55 18 20 21 18 14 -10z m-126 -309 c0
-2 -7 -7 -16 -10 -8 -3 -12 -2 -9 4 6 10 25 14 25 6z m269 -1418 c5 -13 7 -24
6 -26 -7 -8 -45 20 -45 33 0 23 30 17 39 -7z"/>
<path d="M2497 8913 c-4 -3 -7 -11 -7 -17 0 -6 5 -5 12 2 6 6 9 14 7 17 -3 3
-9 2 -12 -2z"/>
<path d="M2628 8873 c6 -2 18 -2 25 0 6 3 1 5 -13 5 -14 0 -19 -2 -12 -5z"/>
<path d="M2485 8830 c3 -5 10 -10 16 -10 5 0 9 5 9 10 0 6 -7 10 -16 10 -8 0
-12 -4 -9 -10z"/>
<path d="M2080 8822 c0 -7 6 -12 13 -9 6 2 20 -2 30 -11 15 -14 17 -13 17 5 0
15 -8 22 -30 25 -21 3 -30 0 -30 -10z"/>
<path d="M5005 6350 c-3 -5 1 -10 10 -10 9 0 13 5 10 10 -3 6 -8 10 -10 10 -2
0 -7 -4 -10 -10z"/>
<path d="M1730 9451 c0 -5 7 -14 15 -21 13 -10 15 -9 15 9 0 12 -6 21 -15 21
-8 0 -15 -4 -15 -9z"/>
<path d="M1706 9426 c3 -8 -5 -21 -18 -30 -12 -9 -17 -16 -11 -16 19 0 56 36
49 48 -10 17 -26 15 -20 -2z"/>
<path d="M2630 8480 c0 -5 5 -10 10 -10 6 0 10 5 10 10 0 6 -4 10 -10 10 -5 0
-10 -4 -10 -10z"/>
<path d="M2285 8470 c3 -5 13 -10 21 -10 8 0 12 5 9 10 -3 6 -13 10 -21 10 -8
0 -12 -4 -9 -10z"/>
<path d="M3466 8321 c-4 -7 -5 -15 -2 -18 9 -9 19 4 14 18 -4 11 -6 11 -12 0z"/>
<path d="M3500 8270 c20 -13 33 -13 25 0 -3 6 -14 10 -23 10 -15 0 -15 -2 -2
-10z"/>
<path d="M2048 8123 c-22 -5 -24 -23 -3 -23 8 0 15 -7 15 -15 0 -10 10 -15 33
-14 26 0 28 2 12 8 -11 5 -24 6 -29 3 -5 -3 -7 7 -4 22 3 14 2 25 -1 25 -3 -1
-14 -3 -23 -6z"/>
<path d="M3590 8120 c-12 -8 -12 -10 5 -9 11 0 29 4 40 9 18 8 18 9 -5 9 -14
0 -32 -4 -40 -9z"/>
<path d="M1996 8031 c-4 -5 3 -7 14 -4 23 6 26 13 6 13 -8 0 -17 -4 -20 -9z"/>
<path d="M2120 7930 c0 -5 5 -10 10 -10 6 0 10 5 10 10 0 6 -4 10 -10 10 -5 0
-10 -4 -10 -10z"/>
<path d="M3767 7814 c3 -7 9 -14 14 -14 14 0 10 17 -5 23 -10 4 -13 1 -9 -9z"/>
<path d="M3752 7761 c-10 -6 -8 -10 9 -14 26 -7 34 -3 24 12 -7 13 -15 14 -33
2z"/>
<path d="M2895 7740 c-3 -4 3 -10 13 -13 9 -2 25 -8 35 -12 9 -4 17 -3 17 2 0
12 -59 33 -65 23z"/>
<path d="M3610 7740 c0 -5 5 -10 10 -10 6 0 10 5 10 10 0 6 -4 10 -10 10 -5 0
-10 -4 -10 -10z"/>
<path d="M3600 7650 c0 -6 7 -10 15 -10 8 0 15 2 15 4 0 2 -7 6 -15 10 -8 3
-15 1 -15 -4z"/>
<path d="M3573 7596 c4 -10 7 -20 7 -22 0 -2 9 -4 20 -4 11 0 20 -4 20 -10 0
-18 55 -11 70 10 11 15 16 16 23 7 6 -9 7 -8 5 2 -3 11 -20 15 -59 16 -30 0
-63 5 -73 10 -16 7 -18 5 -13 -9z m87 -26 c0 -5 -5 -10 -11 -10 -5 0 -7 5 -4
10 3 6 8 10 11 10 2 0 4 -4 4 -10z"/>
<path d="M3790 7606 c0 -2 9 -6 20 -9 11 -3 18 -1 14 4 -5 9 -34 13 -34 5z"/>
<path d="M2630 7580 c0 -22 7 -25 29 -11 16 10 6 31 -15 31 -8 0 -14 -9 -14
-20z"/>
<path d="M3549 7441 c12 -8 51 -4 51 5 0 2 -15 4 -32 4 -23 0 -29 -3 -19 -9z"/>
<path d="M3610 7380 c0 -5 5 -10 11 -10 5 0 7 5 4 10 -3 6 -8 10 -11 10 -2 0
-4 -4 -4 -10z"/>
<path d="M3520 7229 c-12 -9 -12 -10 4 -5 10 4 25 1 34 -6 13 -11 14 -10 10 2
-6 19 -29 23 -48 9z"/>
<path d="M3185 6870 c-7 -12 2 -12 30 0 19 8 19 9 -2 9 -12 1 -25 -3 -28 -9z"/>
<path d="M3141 6734 c0 -11 3 -14 6 -6 3 7 2 16 -1 19 -3 4 -6 -2 -5 -13z"/>
<path d="M3060 6616 c0 -8 51 -13 56 -5 3 5 -9 9 -25 9 -17 0 -31 -2 -31 -4z"/>
<path d="M3112 6565 c0 -16 2 -22 5 -12 2 9 2 23 0 30 -3 6 -5 -1 -5 -18z"/>
<path d="M4650 6490 c0 -5 5 -10 10 -10 6 0 10 5 10 10 0 6 -4 10 -10 10 -5 0
-10 -4 -10 -10z"/>
<path d="M3270 6435 c0 -8 5 -15 10 -15 6 0 10 7 10 15 0 8 -4 15 -10 15 -5 0
-10 -7 -10 -15z"/>
<path d="M4384 6409 c-6 -11 -6 -11 29 -13 15 -1 27 1 27 5 0 10 -50 17 -56 8z"/>
<path d="M4461 6384 c0 -11 3 -14 6 -6 3 7 2 16 -1 19 -3 4 -6 -2 -5 -13z"/>
<path d="M4668 6353 c6 -2 18 -2 25 0 6 3 1 5 -13 5 -14 0 -19 -2 -12 -5z"/>
<path d="M4710 6341 c0 -15 16 -22 34 -15 25 9 19 24 -9 24 -14 0 -25 -4 -25
-9z"/>
<path d="M3848 6323 c7 -3 16 -2 19 1 4 3 -2 6 -13 5 -11 0 -14 -3 -6 -6z"/>
<path d="M4660 6326 c0 -2 7 -6 15 -10 8 -3 15 -1 15 4 0 6 -7 10 -15 10 -8 0
-15 -2 -15 -4z"/>
<path d="M4685 6220 c4 -6 11 -8 16 -5 14 9 11 15 -7 15 -8 0 -12 -5 -9 -10z"/>
<path d="M4738 6133 c7 -3 16 -2 19 1 4 3 -2 6 -13 5 -11 0 -14 -3 -6 -6z"/>
<path d="M4490 5980 c0 -5 5 -10 10 -10 6 0 10 5 10 10 0 6 -4 10 -10 10 -5 0
-10 -4 -10 -10z"/>
<path d="M4410 5910 c0 -5 5 -10 10 -10 6 0 10 5 10 10 0 6 -4 10 -10 10 -5 0
-10 -4 -10 -10z"/>
<path d="M4227 5849 c-3 -10 0 -19 6 -19 6 0 7 -3 4 -7 -4 -4 5 -12 20 -20 16
-7 37 -19 48 -27 19 -14 20 -13 21 10 2 18 -5 28 -22 34 -13 5 -24 13 -24 18
0 5 -11 14 -24 20 -20 9 -25 8 -29 -9z"/>
<path d="M4350 5830 c-8 -5 -10 -10 -5 -10 6 0 17 5 25 10 8 5 11 10 5 10 -5
0 -17 -5 -25 -10z"/>
<path d="M4426 5822 c-8 -13 5 -52 15 -46 5 3 7 9 4 14 -3 5 -1 11 5 15 11 7
4 25 -10 25 -5 0 -11 -4 -14 -8z"/>
<path d="M4100 5730 c0 -5 9 -10 21 -10 11 0 17 5 14 10 -3 6 -13 10 -21 10
-8 0 -14 -4 -14 -10z"/>
<path d="M4320 5701 c0 -9 41 -23 48 -16 2 2 1 8 -3 14 -8 13 -45 15 -45 2z"/>
<path d="M4396 5690 c8 -33 9 -33 33 -25 25 8 18 25 -9 25 -10 0 -21 6 -24 13
-3 6 -3 1 0 -13z"/>
<path d="M4388 5603 c7 -3 16 -2 19 1 4 3 -2 6 -13 5 -11 0 -14 -3 -6 -6z"/>
<path d="M4860 5570 c8 -5 24 -10 35 -10 17 0 17 2 5 10 -8 5 -24 10 -35 10
-17 0 -17 -2 -5 -10z"/>
<path d="M1892 4785 c-22 -12 -21 -13 22 -19 31 -5 43 -11 40 -20 -3 -9 5 -15
25 -18 29 -4 41 6 41 33 0 13 -56 39 -82 38 -13 -1 -33 -7 -46 -14z"/>
<path d="M2030 4756 c0 -9 5 -16 10 -16 6 0 10 4 10 9 0 6 -4 13 -10 16 -5 3
-10 -1 -10 -9z"/>
<path d="M2070 4748 c0 -16 2 -28 4 -28 2 0 11 -3 20 -6 22 -8 20 9 -4 37
l-19 24 -1 -27z"/>
<path d="M2226 4752 c-3 -6 0 -13 6 -16 9 -3 7 -9 -7 -17 -19 -12 -19 -12 0
-20 32 -12 45 -10 45 6 0 21 -36 59 -44 47z"/>
<path d="M2093 4689 c-17 -17 -16 -37 1 -55 8 -7 16 -18 18 -24 2 -6 13 -12
26 -13 12 0 22 -5 22 -10 0 -5 15 -7 33 -5 27 2 31 0 29 -16 -3 -13 1 -17 11
-13 8 3 19 1 24 -4 6 -6 15 -4 24 7 12 14 10 19 -9 34 -12 10 -22 29 -22 43 0
35 -25 57 -63 56 -18 0 -43 2 -57 6 -15 4 -30 1 -37 -6z"/>
<path d="M1750 4613 c-17 -7 -40 -29 -40 -37 0 -3 12 -6 26 -6 22 0 24 3 15
14 -10 12 -7 14 16 13 15 -1 30 3 33 8 6 11 -28 17 -50 8z"/>
<path d="M2020 4610 c0 -5 5 -10 11 -10 5 0 7 5 4 10 -3 6 -8 10 -11 10 -2 0
-4 -4 -4 -10z"/>
<path d="M2358 4608 c7 -7 8 -16 3 -22 -6 -7 -4 -19 5 -30 8 -11 14 -14 14 -7
0 7 5 9 10 6 6 -3 10 1 10 9 0 8 -4 17 -10 21 -5 3 -7 12 -3 20 3 11 -2 15
-18 15 -18 0 -20 -3 -11 -12z"/>
<path d="M2310 4564 c0 -8 4 -13 9 -9 5 3 12 -7 14 -22 3 -23 4 -21 6 10 1 27
-3 37 -14 37 -8 0 -15 -7 -15 -16z"/>
<path d="M2175 4560 c-3 -5 -1 -10 4 -10 6 0 11 5 11 10 0 6 -2 10 -4 10 -3 0
-8 -4 -11 -10z"/>
<path d="M2352 4535 c0 -16 2 -22 5 -12 2 9 2 23 0 30 -3 6 -5 -1 -5 -18z"/>
<path d="M1900 4536 c0 -8 -9 -12 -25 -11 -20 3 -25 -1 -25 -20 0 -17 -8 -26
-31 -34 -38 -13 -42 -13 -35 -3 3 5 -4 23 -14 40 -20 33 -45 35 -54 4 -10 -32
-18 -239 -20 -502 -2 -146 -6 -295 -10 -332 -7 -57 -6 -69 7 -74 13 -5 14 -9
4 -25 -9 -14 -9 -21 1 -31 6 -6 12 -26 12 -44 0 -41 25 -64 46 -42 18 18 29
144 14 153 -13 8 -13 52 0 60 6 3 10 22 10 41 0 20 5 45 11 56 8 15 8 23 0 31
-9 9 -6 16 10 28 l22 17 -23 12 -23 12 24 19 c22 18 23 20 7 33 -21 16 -23 32
-5 39 8 4 7 6 -3 6 -9 1 -21 6 -28 13 -10 10 -7 15 10 25 13 7 18 12 11 13 -7
0 -10 7 -7 15 8 20 -6 19 -22 -2 -12 -16 -13 -15 -14 13 0 38 26 64 66 64 20
0 25 3 15 9 -7 5 -11 13 -7 19 3 5 -2 13 -12 17 -15 6 -14 8 8 18 l25 10 -30
6 c-36 8 -20 22 25 23 30 1 45 28 15 28 -8 0 -15 5 -15 10 0 6 15 10 33 10 24
0 28 3 17 10 -8 5 -30 10 -47 10 -22 0 -33 5 -33 14 0 8 -3 21 -6 29 -3 9 3
16 16 20 17 4 20 10 14 31 -3 15 -2 26 4 26 5 0 12 8 16 18 3 9 11 25 18 36
10 15 10 20 1 23 -7 3 -13 11 -13 19 0 10 5 12 13 7 26 -16 37 -11 37 18 0 16
-2 29 -5 29 -3 0 -5 -6 -5 -14z"/>
<path d="M4280 4520 c0 -5 5 -10 11 -10 5 0 7 5 4 10 -3 6 -8 10 -11 10 -2 0
-4 -4 -4 -10z"/>
<path d="M4010 4250 c0 -5 5 -10 10 -10 6 0 10 5 10 10 0 6 -4 10 -10 10 -5 0
-10 -4 -10 -10z"/>
<path d="M3014 4078 c-3 -4 0 -8 5 -8 21 0 26 -2 39 -12 9 -8 16 -7 25 5 7 9
28 18 47 20 19 2 2 4 -38 3 -41 0 -76 -4 -78 -8z"/>
<path d="M3171 4044 c0 -11 3 -14 6 -6 3 7 2 16 -1 19 -3 4 -6 -2 -5 -13z"/>
<path d="M3038 3998 c0 -13 0 -32 1 -44 1 -17 -3 -20 -28 -16 -26 3 -31 0 -36
-21 -4 -14 -15 -33 -25 -42 -15 -13 -22 -14 -38 -4 -11 7 -17 19 -15 29 3 10
-2 20 -12 24 -9 3 -13 2 -10 -4 3 -6 1 -10 -4 -10 -6 0 -11 -7 -11 -16 0 -11
-8 -15 -33 -13 -18 2 -39 -1 -46 -5 -9 -6 -18 -3 -27 9 -16 22 -9 36 13 28 13
-5 13 -3 -3 13 -13 15 -26 18 -44 14 -14 -4 -24 -9 -22 -13 4 -13 -36 -45 -55
-44 -13 2 -19 -6 -21 -27 -2 -16 1 -26 6 -22 5 3 12 -7 14 -22 3 -15 7 -34 9
-42 2 -8 -1 -14 -8 -13 -11 2 -30 -60 -25 -79 1 -4 -7 -12 -18 -18 -13 -7 -20
-21 -20 -40 0 -17 -3 -30 -8 -30 -11 0 -35 -42 -38 -67 -1 -14 3 -23 12 -23 8
0 14 -4 14 -10 0 -5 -6 -10 -12 -10 -16 0 -38 -46 -38 -79 0 -51 -13 -101 -23
-94 -7 4 -8 0 -3 -12 4 -11 2 -22 -6 -27 -10 -6 -10 -8 0 -8 6 0 12 -7 12 -15
0 -8 -5 -15 -11 -15 -7 0 -9 -10 -7 -25 3 -14 1 -28 -4 -31 -4 -3 -6 -9 -3
-14 3 -5 1 -11 -4 -15 -6 -3 -8 -12 -4 -20 3 -8 0 -15 -6 -15 -6 0 -11 -7 -11
-15 0 -8 -9 -31 -20 -50 -11 -20 -18 -40 -15 -45 3 -5 -5 -18 -17 -30 -16 -14
-18 -19 -6 -15 13 5 15 2 11 -17 -4 -13 -11 -26 -17 -30 -11 -7 -12 -12 -15
-48 0 -11 -8 -20 -16 -20 -17 0 -18 -6 -15 -74 1 -33 -1 -46 -9 -42 -6 4 -11
2 -11 -3 0 -6 -4 -11 -9 -11 -6 0 -8 9 -6 20 2 11 0 22 -6 25 -5 4 -9 -1 -9
-9 0 -9 -8 -16 -17 -16 -14 0 -18 -9 -18 -39 -1 -43 -23 -80 -36 -60 -4 7 -33
14 -64 17 -41 3 -53 7 -42 14 13 7 14 14 6 35 -5 14 -7 34 -4 44 4 11 2 19 -5
19 -7 0 -14 -9 -17 -21 -4 -12 -11 -18 -20 -15 -8 3 -12 2 -9 -3 3 -5 -1 -11
-9 -15 -25 -9 -18 -43 11 -50 22 -6 25 -11 20 -39 -6 -32 -6 -32 5 -4 10 24
15 27 57 26 26 0 41 -3 35 -6 -7 -2 -13 -11 -13 -18 0 -17 -23 -25 -51 -18
-19 5 -21 3 -15 -13 5 -10 14 -42 20 -70 7 -27 16 -56 21 -64 5 -8 2 -18 -10
-26 -10 -8 -16 -17 -12 -20 3 -4 0 -19 -8 -34 -16 -30 -55 -47 -55 -24 0 9
-11 14 -34 14 -29 0 -33 -3 -29 -20 6 -22 -7 -26 -25 -8 -9 9 -12 7 -12 -10 0
-21 -14 -30 -23 -14 -2 4 -1 0 2 -8 3 -8 5 -34 6 -57 0 -23 6 -48 13 -54 10
-11 12 -10 12 0 0 11 3 11 15 1 13 -11 20 -11 40 0 29 16 31 28 8 45 -15 11
-14 13 10 13 26 0 27 -3 27 -54 0 -47 -3 -54 -19 -54 -11 0 -22 -9 -26 -20 -3
-11 -12 -19 -18 -17 -7 1 -12 -8 -12 -20 0 -11 -3 -25 -7 -29 -13 -13 -9 -34
6 -34 13 0 55 48 53 60 -6 21 98 104 143 115 14 3 38 1 53 -4 16 -6 68 -15
117 -21 102 -12 137 -2 147 39 7 30 82 127 94 123 5 -1 9 6 9 16 0 11 12 22
31 29 20 8 28 16 23 24 -5 8 -2 10 8 6 23 -8 51 27 46 58 -3 14 -1 25 3 25 5
0 9 7 9 15 0 9 9 15 25 15 14 0 25 6 25 13 0 18 51 40 64 26 8 -7 6 -8 -6 -4
-12 5 -18 2 -18 -8 0 -10 8 -13 25 -9 29 5 30 19 10 77 -8 22 -15 42 -15 44 0
2 14 1 30 -1 17 -3 30 -1 30 4 0 5 9 7 19 3 17 -5 20 -1 19 25 -1 26 -4 30
-22 25 -17 -5 -18 -4 -6 4 20 14 63 14 54 0 -3 -6 8 -4 24 5 17 9 42 16 57 16
14 0 25 5 25 11 0 7 -26 9 -72 8 -40 -2 -82 2 -92 8 -16 9 -9 12 45 19 61 9
64 10 64 37 -1 24 3 27 32 27 21 0 36 6 40 16 5 13 7 13 14 2 7 -10 9 -10 9 0
0 15 24 16 49 0 15 -9 25 -7 52 9 l33 21 -38 8 c-30 5 -35 9 -22 16 10 5 24 5
37 -3 15 -8 23 -8 28 0 4 6 32 12 64 13 31 2 57 6 57 11 0 4 -9 7 -20 7 -11 0
-20 4 -20 8 0 12 34 42 48 42 6 0 16 8 21 18 10 16 10 16 11 -1 0 -10 12 -23
28 -29 l27 -11 -30 -6 c-28 -6 -28 -7 -7 -13 12 -3 35 -3 49 1 26 7 27 8 8 19
-20 11 -20 11 1 12 27 0 82 63 60 68 -9 2 -16 8 -16 14 0 6 10 8 23 4 12 -3
30 -6 40 -6 11 0 15 -4 11 -12 -4 -6 -3 -8 4 -4 6 3 13 2 17 -4 4 -6 11 -7 18
-3 6 4 20 8 31 9 12 1 31 5 44 9 14 5 22 3 22 -4 0 -6 -9 -11 -19 -11 -11 0
-23 -4 -26 -10 -4 -6 11 -10 39 -10 36 0 44 -3 40 -15 -4 -10 0 -15 15 -15 13
0 19 5 15 14 -6 17 18 27 37 15 8 -5 35 -9 61 -9 l47 0 -5 103 c-4 56 -7 131
-8 167 -1 36 -5 75 -10 88 -5 15 -3 28 5 38 9 11 9 18 1 26 -7 7 -12 35 -12
62 0 50 -34 138 -63 161 -7 6 -18 22 -24 38 -7 15 -19 27 -28 27 -10 0 -15 10
-15 33 0 21 -7 36 -20 45 -11 7 -20 21 -20 32 0 18 -5 19 -65 13 -56 -5 -65
-4 -65 11 0 9 -4 16 -10 16 -5 0 -10 -7 -10 -15 0 -9 -7 -18 -15 -21 -8 -4
-15 -12 -15 -20 0 -8 -4 -14 -10 -14 -5 0 -10 -7 -10 -15 0 -27 -65 -23 -118
6 l-36 21 -17 -21 c-18 -22 -76 -29 -94 -12 -6 5 -29 12 -51 16 -33 5 -43 3
-47 -9 -7 -17 -52 -22 -62 -7 -3 5 7 11 22 13 l28 4 -25 11 c-14 6 -26 7 -28
2 -2 -5 -17 -2 -34 7 l-31 16 7 83 c4 52 2 86 -4 90 -5 3 -11 -4 -12 -17z
m477 -244 c13 -5 14 -8 3 -15 -18 -12 -58 -11 -58 0 0 5 8 12 18 14 9 3 18 5
19 6 1 0 9 -2 18 -5z m85 -40 c0 -8 -4 -12 -10 -9 -5 3 -10 10 -10 16 0 5 5 9
10 9 6 0 10 -7 10 -16z m-90 -258 c0 -3 -4 -8 -10 -11 -5 -3 -10 -1 -10 4 0 6
5 11 10 11 6 0 10 -2 10 -4z m150 -16 c0 -5 -2 -10 -4 -10 -3 0 -8 5 -11 10
-3 6 -1 10 4 10 6 0 11 -4 11 -10z m-165 -40 c-3 -5 -13 -10 -21 -10 -8 0 -14
5 -14 10 0 6 9 10 21 10 11 0 17 -4 14 -10z m73 -58 c2 -7 -2 -10 -12 -6 -9 3
-16 11 -16 16 0 13 23 5 28 -10z m-129 -56 c7 -8 21 -12 31 -9 14 4 20 0 20
-11 0 -11 -8 -15 -25 -14 -14 1 -25 6 -25 10 0 4 -7 8 -15 8 -8 0 -15 7 -15
15 0 19 14 19 29 1z m251 -111 c0 -8 -4 -16 -9 -19 -5 -3 -8 5 -7 18 1 25 16
26 16 1z m-60 -85 c0 -5 -2 -10 -4 -10 -3 0 -8 5 -11 10 -3 6 -1 10 4 10 6 0
11 -4 11 -10z m-345 -130 c-3 -5 -13 -10 -21 -10 -8 0 -12 5 -9 10 3 6 13 10
21 10 8 0 12 -4 9 -10z m-81 -18 c2 -4 -12 -6 -32 -4 -56 5 -62 10 -15 11 23
1 44 -3 47 -7z m-4 -52 c0 -5 -4 -10 -10 -10 -5 0 -10 5 -10 10 0 6 5 10 10
10 6 0 10 -4 10 -10z m-1120 -580 c0 -5 -8 -10 -17 -10 -15 0 -16 2 -3 10 19
12 20 12 20 0z"/>
<path d="M3190 4010 c0 -5 5 -10 10 -10 6 0 10 5 10 10 0 6 -4 10 -10 10 -5 0
-10 -4 -10 -10z"/>
<path d="M2952 3989 c2 -6 8 -10 13 -10 5 0 11 4 13 10 2 6 -4 11 -13 11 -9 0
-15 -5 -13 -11z"/>
<path d="M4015 3930 c-4 -6 3 -10 14 -10 25 0 27 6 6 13 -8 4 -17 2 -20 -3z"/>
<path d="M3175 3850 c-3 -5 1 -10 10 -10 9 0 13 5 10 10 -3 6 -8 10 -10 10 -2
0 -7 -4 -10 -10z"/>
<path d="M3465 3840 c4 -6 11 -8 16 -5 14 9 11 15 -7 15 -8 0 -12 -5 -9 -10z"/>
<path d="M3280 3798 c0 -12 38 -10 45 2 4 6 -5 9 -19 8 -15 -1 -26 -6 -26 -10z"/>
<path d="M1785 3440 c-3 -5 -1 -10 4 -10 6 0 11 5 11 10 0 6 -2 10 -4 10 -3 0
-8 -4 -11 -10z"/>
<path d="M1740 3425 c0 -8 -5 -15 -11 -15 -6 0 -9 -8 -7 -18 8 -28 -10 -141
-24 -156 -13 -13 -58 -10 -58 5 0 5 -7 9 -15 9 -8 0 -15 6 -15 13 0 9 -13 11
-42 9 -53 -5 -73 -19 -57 -38 9 -11 6 -14 -14 -14 -19 0 -25 4 -21 14 7 18 -3
23 -51 27 -22 1 -46 7 -53 12 -9 7 -16 5 -25 -6 -7 -9 -25 -17 -42 -19 -16 -2
-29 -7 -27 -12 3 -9 -43 -36 -62 -36 -6 0 -17 -13 -23 -30 -11 -28 -33 -42
-33 -20 0 6 -5 10 -11 10 -7 0 -10 -12 -7 -29 4 -25 0 -31 -19 -36 -31 -7 -43
0 -38 24 4 21 -20 36 -31 20 -3 -6 -17 -8 -30 -5 -13 4 -36 3 -51 0 -26 -7
-26 -7 -5 -15 12 -5 22 -15 22 -24 0 -8 5 -15 10 -15 6 0 10 -15 10 -34 0 -21
6 -36 16 -40 8 -3 12 -10 9 -16 -4 -6 -11 -8 -16 -5 -5 4 -9 1 -9 -4 0 -6 -3
-10 -7 -9 -15 3 -63 -14 -63 -23 0 -5 -7 -9 -14 -9 -8 0 -27 -11 -42 -25 -14
-13 -31 -22 -36 -19 -6 4 -8 -1 -4 -12 8 -28 -56 -88 -84 -79 l-21 7 24 31
c13 18 26 41 29 53 5 20 3 20 -30 9 -20 -7 -41 -21 -49 -31 -7 -10 -13 -13
-13 -8 0 6 5 15 11 21 8 8 8 13 0 17 -6 4 -16 -4 -23 -19 -8 -18 -14 -22 -20
-13 -5 9 -8 6 -8 -9 0 -14 -9 -24 -29 -31 -17 -6 -36 -20 -43 -32 -7 -12 -34
-33 -60 -46 -27 -13 -48 -28 -48 -33 0 -4 -10 -7 -22 -6 -13 1 -29 3 -35 4
-21 2 -15 17 12 31 14 7 25 22 25 32 0 11 -4 17 -9 14 -5 -3 -11 1 -15 9 -12
31 -143 3 -178 -38 -47 -53 13 -128 114 -142 38 -6 53 -3 81 14 45 27 54 27
123 -10 42 -21 67 -29 87 -25 74 15 143 41 163 61 45 45 172 102 246 110 28 3
54 8 57 10 6 3 185 43 269 60 18 4 61 24 95 44 84 50 115 62 161 59 37 -3 41
0 62 37 13 21 20 43 18 47 -3 4 -1 8 4 8 5 0 7 11 4 25 -2 14 1 32 8 40 11 13
10 14 -4 9 -13 -5 -15 -2 -10 12 4 11 10 24 15 29 17 24 28 87 18 113 -8 20
-7 28 6 34 10 6 13 17 9 34 -4 14 -1 31 7 41 8 9 9 14 2 10 -15 -10 -44 20
-37 38 4 8 1 15 -5 15 -6 0 -11 -7 -11 -15z"/>
<path d="M4180 3340 c0 -5 5 -10 10 -10 6 0 10 5 10 10 0 6 -4 10 -10 10 -5 0
-10 -4 -10 -10z"/>
<path d="M4150 3229 c0 -11 4 -18 10 -14 5 3 7 12 3 20 -7 21 -13 19 -13 -6z"/>
<path d="M4187 3208 c-4 -12 -4 -24 -1 -27 6 -7 24 20 24 37 0 21 -17 13 -23
-10z"/>
<path d="M3380 2924 c0 -8 5 -12 10 -9 6 4 8 11 5 16 -9 14 -15 11 -15 -7z"/>
<path d="M3308 2903 c7 -3 16 -2 19 1 4 3 -2 6 -13 5 -11 0 -14 -3 -6 -6z"/>
<path d="M3331 2881 c-8 -5 -9 -11 -3 -15 5 -3 15 1 22 9 14 16 3 20 -19 6z"/>
<path d="M3370 2845 c-11 -13 -9 -15 13 -15 13 0 30 7 37 15 11 13 9 15 -13
15 -13 0 -30 -7 -37 -15z"/>
<path d="M3145 2800 c3 -5 0 -10 -7 -10 -8 0 -21 -9 -30 -19 -15 -18 -15 -19
19 -19 25 0 33 4 29 14 -4 10 3 14 22 14 19 0 23 3 13 9 -11 7 -10 10 5 14 10
2 2 5 -19 6 -23 1 -36 -3 -32 -9z"/>
<path d="M3028 2793 c7 -3 16 -2 19 1 4 3 -2 6 -13 5 -11 0 -14 -3 -6 -6z"/>
<path d="M2867 2624 c-13 -13 3 -20 37 -16 20 2 33 8 30 13 -6 10 -57 12 -67
3z"/>
<path d="M1680 2598 c0 -7 -12 -27 -27 -44 -16 -16 -35 -43 -43 -59 -8 -15
-19 -36 -24 -45 -17 -30 -157 -123 -219 -146 -34 -12 -82 -30 -107 -39 -25
-10 -76 -24 -115 -32 -38 -7 -88 -18 -110 -22 -92 -19 -138 -36 -143 -53 -4
-16 -41 -25 -76 -19 -4 1 -13 -2 -20 -8 -6 -5 -36 -12 -66 -16 -59 -7 -100
-27 -100 -49 0 -9 -15 -13 -47 -14 -27 0 -96 -4 -155 -7 l-107 -7 -49 -57
c-60 -69 -82 -110 -82 -154 0 -42 42 -92 68 -82 9 3 29 9 45 12 15 3 27 11 27
18 0 12 114 45 156 45 12 0 27 7 34 15 7 9 19 14 27 11 7 -3 13 -2 13 3 0 4
17 12 37 17 20 5 38 15 41 23 3 10 -8 12 -49 10 l-54 -4 0 33 c0 18 -6 37 -14
41 -11 7 -9 10 10 14 23 4 23 4 2 6 -30 1 -29 15 2 29 35 16 53 16 37 0 -22
-22 -13 -34 23 -30 21 3 45 -2 59 -11 18 -12 26 -13 35 -4 9 9 14 8 21 -3 7
-12 12 -11 30 5 11 10 28 19 38 20 9 0 23 5 30 9 8 5 21 1 34 -11 15 -13 22
-15 25 -5 3 6 11 12 19 12 12 0 21 -47 15 -82 0 -5 3 -8 8 -8 6 0 12 15 14 33
3 28 4 27 5 -10 2 -38 -1 -43 -24 -49 -18 -5 -22 -10 -15 -17 7 -7 5 -14 -7
-23 -15 -12 -15 -15 -2 -24 13 -9 13 -11 0 -20 -8 -6 -25 -8 -37 -5 -13 3 -23
1 -23 -5 0 -5 -6 -10 -14 -10 -7 0 -20 -10 -28 -22 -14 -21 -17 -21 -34 -8
-10 9 -15 10 -10 3 4 -7 2 -14 -3 -14 -6 -1 -17 -2 -23 -3 -7 -1 -12 -7 -10
-14 1 -7 -6 -15 -15 -19 -10 -4 -32 -17 -49 -30 -17 -13 -40 -23 -51 -23 -11
0 -26 -11 -33 -25 -9 -17 -17 -22 -24 -15 -5 5 -18 10 -28 10 -10 0 -18 5 -18
10 0 6 -5 10 -12 10 -9 0 -9 -3 0 -12 7 -7 12 -15 12 -19 0 -9 -56 -26 -93
-28 -24 -1 -27 3 -27 33 0 41 -37 76 -79 76 -20 0 -23 -2 -11 -10 10 -6 11
-10 3 -10 -31 0 7 -85 42 -96 11 -4 27 -12 35 -19 8 -7 26 -15 40 -17 17 -2
26 -10 28 -25 4 -25 17 -30 26 -10 5 9 7 9 12 -1 4 -9 11 -5 20 14 12 22 12
29 2 36 -9 5 -4 8 13 8 14 0 34 9 43 19 10 11 24 17 32 14 8 -3 14 -1 14 5 0
12 42 28 93 37 20 3 37 9 37 14 0 4 11 13 25 19 31 14 32 30 3 42 -21 8 -19 9
12 10 39 2 89 18 58 19 -10 1 -18 5 -18 10 0 5 12 7 27 5 36 -7 83 14 94 43 6
16 16 23 36 23 54 0 164 43 199 78 19 19 34 38 34 43 0 5 6 9 14 9 7 0 21 11
30 25 9 14 23 25 31 25 8 0 15 7 15 15 0 15 70 89 100 105 10 6 31 10 47 10
22 0 25 2 13 10 -11 7 -11 10 -2 10 7 0 11 4 8 9 -3 5 1 11 9 15 8 3 15 12 15
20 0 10 6 13 15 10 10 -4 15 0 15 13 0 18 32 53 48 53 5 0 19 11 32 25 16 17
31 23 44 20 12 -3 15 -2 9 1 -25 11 -14 45 20 59 17 8 28 15 22 15 -5 0 1 10
14 20 13 11 18 20 12 20 -19 0 -12 28 9 35 24 8 31 64 13 105 -3 8 -7 19 -7
24 -2 15 -26 19 -26 4z m-810 -498 c-8 -5 -19 -10 -25 -10 -5 0 -3 5 5 10 8 5
20 10 25 10 6 0 3 -5 -5 -10z"/>
<path d="M2725 2479 c-4 -17 -4 -33 -1 -36 3 -4 6 1 6 9 0 9 7 21 15 28 8 7
12 16 9 21 -10 18 -23 9 -29 -22z"/>
<path d="M3871 2353 c-17 -3 -20 -7 -11 -13 16 -10 -25 -39 -66 -46 -16 -2
-36 -13 -46 -24 -9 -11 -23 -20 -31 -20 -7 0 -24 -9 -37 -20 -13 -11 -27 -20
-32 -20 -19 0 -66 -57 -58 -69 4 -7 10 -12 14 -12 3 1 30 -10 59 -24 28 -15
83 -35 120 -45 38 -11 89 -31 114 -45 25 -14 48 -23 51 -20 3 3 0 5 -7 5 -10
0 -12 24 -9 97 3 62 0 113 -8 140 -10 33 -10 45 1 59 7 10 10 25 7 34 -6 15
-23 31 -32 28 -3 0 -16 -3 -29 -5z"/>
<path d="M4118 2293 c-10 -2 -18 -9 -18 -15 0 -5 7 -7 16 -4 9 3 22 6 30 6 8
0 14 5 14 10 0 10 -12 11 -42 3z"/>
<path d="M3986 1992 c-6 -9 33 -46 41 -39 6 6 -19 47 -29 47 -4 0 -9 -4 -12
-8z"/>
<path d="M3966 1922 c-2 -4 4 -8 15 -8 10 0 19 4 19 8 0 4 -6 8 -14 8 -8 0
-17 -4 -20 -8z"/>
<path d="M4035 1920 c3 -5 11 -10 16 -10 6 0 7 5 4 10 -3 6 -11 10 -16 10 -6
0 -7 -4 -4 -10z"/>
<path d="M576 1831 c-8 -12 20 -22 39 -15 19 8 9 24 -15 24 -10 0 -21 -4 -24
-9z"/>
<path d="M4060 1805 c0 -28 15 -34 24 -9 10 25 7 34 -9 34 -9 0 -15 -9 -15
-25z"/>
<path d="M478 1737 c-7 -8 -19 -12 -26 -9 -6 2 -12 -1 -12 -7 0 -6 -8 -11 -17
-12 -15 0 -15 -2 2 -8 19 -8 18 -9 -5 -13 -25 -5 -25 -5 3 -7 15 0 27 -5 27
-11 0 -5 7 -10 16 -10 8 0 12 5 9 10 -3 6 0 10 9 10 8 0 16 -6 19 -12 2 -8 8
-9 13 -4 5 5 4 11 -3 13 -21 8 -14 26 7 20 27 -7 27 28 1 43 -25 13 -27 13
-43 -3z"/>
<path d="M1406 1523 c-4 -5 -12 -9 -17 -9 -5 -1 -10 -2 -11 -4 -10 -7 -78 -4
-78 4 0 6 -4 4 -9 -4 -11 -16 -4 -33 10 -25 5 4 9 -6 10 -22 l1 -28 8 25 c8
24 8 23 9 -7 1 -18 -3 -33 -9 -33 -5 0 -10 -9 -10 -20 0 -11 -4 -20 -8 -20 -5
0 -14 -10 -20 -22 -8 -18 -11 -19 -11 -5 -1 9 -8 17 -17 17 -13 0 -14 3 -5 13
8 11 7 18 -7 29 -24 21 -52 30 -49 16 1 -6 -9 -14 -23 -18 -27 -6 -34 -30 -11
-38 8 -3 11 0 7 6 -3 6 -2 14 4 17 16 10 7 -39 -10 -60 -8 -9 -22 -14 -34 -11
-19 5 -19 5 1 -16 19 -18 25 -19 57 -8 20 6 36 16 36 21 0 5 16 9 35 9 24 0
35 5 35 15 0 15 11 19 39 15 8 -1 17 3 20 8 3 5 26 32 51 61 25 29 48 63 52
77 5 20 3 24 -16 24 -13 0 -26 -3 -30 -7z"/>
<path d="M570 1461 c-8 -5 -31 -11 -51 -15 -30 -5 -39 -13 -54 -45 -22 -50
-17 -76 15 -77 14 -1 46 -10 72 -20 35 -13 51 -15 59 -7 7 7 8 17 3 25 -5 7
-9 22 -9 33 0 13 -7 20 -20 21 -35 2 -37 4 -20 20 9 9 14 23 11 30 -3 7 4 16
15 19 10 4 17 11 14 16 -7 11 -15 11 -35 0z"/>
<path d="M992 1454 c-12 -8 -22 -12 -22 -9 0 4 -7 -1 -16 -9 -8 -9 -26 -16
-39 -16 -25 0 -42 -30 -29 -52 6 -10 5 -10 -8 0 -17 13 -52 6 -42 -9 3 -5 -2
-9 -10 -9 -15 0 -21 -17 -17 -49 2 -7 -1 -11 -6 -8 -4 3 -16 -1 -26 -8 -16
-11 -15 -13 10 -18 123 -24 221 -15 245 23 8 12 16 16 23 10 7 -5 10 9 10 43
l0 52 -39 0 c-22 0 -41 5 -43 13 -3 7 4 12 16 12 16 0 21 6 21 25 0 30 1 29
-28 9z"/>
<path d="M4057 1403 c-4 -3 -7 -11 -7 -17 0 -6 5 -5 12 2 6 6 9 14 7 17 -3 3
-9 2 -12 -2z"/>
<path d="M4080 1401 c0 -5 9 -7 20 -4 11 3 20 7 20 9 0 2 -9 4 -20 4 -11 0
-20 -4 -20 -9z"/>
<path d="M630 1255 c12 -15 30 -12 30 6 0 5 -10 9 -21 9 -18 0 -19 -2 -9 -15z"/>
<path d="M3945 900 c3 -5 11 -10 16 -10 6 0 7 5 4 10 -3 6 -11 10 -16 10 -6 0
-7 -4 -4 -10z"/>
<path d="M3955 870 c3 -5 13 -10 21 -10 8 0 14 -5 14 -12 0 -6 2 -9 5 -6 11
11 -8 38 -27 38 -10 0 -16 -4 -13 -10z"/>
<path d="M4030 834 c0 -8 5 -12 10 -9 6 4 8 11 5 16 -9 14 -15 11 -15 -7z"/>
<path d="M3855 590 c-3 -5 3 -10 14 -10 12 0 21 5 21 10 0 6 -6 10 -14 10 -8
0 -18 -4 -21 -10z"/>
<path d="M3760 500 c0 -5 5 -10 11 -10 5 0 7 5 4 10 -3 6 -8 10 -11 10 -2 0
-4 -4 -4 -10z"/>
<path d="M3563 318 c-63 -69 -56 -132 17 -153 14 -4 36 -17 50 -30 17 -16 44
-25 85 -30 33 -4 71 -15 85 -24 40 -28 61 -32 96 -21 l33 11 -2 67 c-2 63 -4
67 -29 76 -21 7 -37 6 -63 -7 -40 -19 -75 -22 -75 -6 0 5 -4 8 -8 5 -17 -10
-52 34 -46 58 4 19 0 25 -25 36 -17 6 -36 18 -42 26 -17 21 -53 17 -76 -8z"/>
</g>
</svg>
